TITLE ""
FILE "2Q_t_0236-0252.mp3" MP3
  TRACK 01 AUDIO
    TITLE "2Q_t_0236-0252_01"
    INDEX 01 00:00:00
  TRACK 02 AUDIO
    TITLE "2Q_t_0236-0252_02"
    INDEX 01 00:01:06
  TRACK 03 AUDIO
    TITLE "2Q_t_0236-0252_03"
    INDEX 01 00:01:53
  TRACK 04 AUDIO
    TITLE "2Q_t_0236-0252_04"
    INDEX 01 00:03:56
  TRACK 05 AUDIO
    TITLE "2Q_t_0236-0252_05"
    INDEX 01 00:04:24
  TRACK 06 AUDIO
    TITLE "2Q_t_0236-0252_06"
    INDEX 01 00:05:17
  TRACK 07 AUDIO
    TITLE "2Q_t_0236-0252_07"
    INDEX 01 00:05:66
  TRACK 08 AUDIO
    TITLE "2Q_t_0236-0252_08"
    INDEX 01 00:09:54
  TRACK 09 AUDIO
    TITLE "2Q_t_0236-0252_09"
    INDEX 01 00:10:22
  TRACK 10 AUDIO
    TITLE "2Q_t_0236-0252_10"
    INDEX 01 00:11:28
  TRACK 11 AUDIO
    TITLE "2Q_t_0236-0252_11"
    INDEX 01 00:11:75
  TRACK 12 AUDIO
    TITLE "2Q_t_0236-0252_12"
    INDEX 01 00:13:11
  TRACK 13 AUDIO
    TITLE "2Q_t_0236-0252_13"
    INDEX 01 00:13:56
  TRACK 14 AUDIO
    TITLE "2Q_t_0236-0252_14"
    INDEX 01 00:17:05
  TRACK 15 AUDIO
    TITLE "2Q_t_0236-0252_15"
    INDEX 01 00:17:48
  TRACK 16 AUDIO
    TITLE "2Q_t_0236-0252_16"
    INDEX 01 00:18:55
  TRACK 17 AUDIO
    TITLE "2Q_t_0236-0252_17"
    INDEX 01 00:19:27
  TRACK 18 AUDIO
    TITLE "2Q_t_0236-0252_18"
    INDEX 01 00:23:47
  TRACK 19 AUDIO
    TITLE "2Q_t_0236-0252_19"
    INDEX 01 00:24:17
  TRACK 20 AUDIO
    TITLE "2Q_t_0236-0252_20"
    INDEX 01 00:25:40
  TRACK 21 AUDIO
    TITLE "2Q_t_0236-0252_21"
    INDEX 01 00:26:14
  TRACK 22 AUDIO
    TITLE "2Q_t_0236-0252_22"
    INDEX 01 00:28:34
  TRACK 23 AUDIO
    TITLE "2Q_t_0236-0252_23"
    INDEX 01 00:29:02
  TRACK 24 AUDIO
    TITLE "2Q_t_0236-0252_24"
    INDEX 01 00:30:11
  TRACK 25 AUDIO
    TITLE "2Q_t_0236-0252_25"
    INDEX 01 00:30:56
  TRACK 26 AUDIO
    TITLE "2Q_t_0236-0252_26"
    INDEX 01 00:32:01
  TRACK 27 AUDIO
    TITLE "2Q_t_0236-0252_27"
    INDEX 01 00:32:44
  TRACK 28 AUDIO
    TITLE "2Q_t_0236-0252_28"
    INDEX 01 00:33:45
  TRACK 29 AUDIO
    TITLE "2Q_t_0236-0252_29"
    INDEX 01 00:34:19
  TRACK 30 AUDIO
    TITLE "2Q_t_0236-0252_30"
    INDEX 01 00:36:45
  TRACK 31 AUDIO
    TITLE "2Q_t_0236-0252_31"
    INDEX 01 00:37:15
  TRACK 32 AUDIO
    TITLE "2Q_t_0236-0252_32"
    INDEX 01 00:38:19
  TRACK 33 AUDIO
    TITLE "2Q_t_0236-0252_33"
    INDEX 01 00:38:66
  TRACK 34 AUDIO
    TITLE "2Q_t_0236-0252_34"
    INDEX 01 00:42:22
  TRACK 35 AUDIO
    TITLE "2Q_t_0236-0252_35"
    INDEX 01 00:42:67
  TRACK 36 AUDIO
    TITLE "2Q_t_0236-0252_36"
    INDEX 01 00:43:61
  TRACK 37 AUDIO
    TITLE "2Q_t_0236-0252_37"
    INDEX 01 00:44:35
  TRACK 38 AUDIO
    TITLE "2Q_t_0236-0252_38"
    INDEX 01 00:46:57
  TRACK 39 AUDIO
    TITLE "2Q_t_0236-0252_39"
    INDEX 01 00:47:27
  TRACK 40 AUDIO
    TITLE "2Q_t_0236-0252_40"
    INDEX 01 00:48:50
  TRACK 41 AUDIO
    TITLE "2Q_t_0236-0252_41"
    INDEX 01 00:49:22
  TRACK 42 AUDIO
    TITLE "2Q_t_0236-0252_42"
    INDEX 01 00:50:43
  TRACK 43 AUDIO
    TITLE "2Q_t_0236-0252_43"
    INDEX 01 00:51:12
  TRACK 44 AUDIO
    TITLE "2Q_t_0236-0252_44"
    INDEX 01 00:52:52
  TRACK 45 AUDIO
    TITLE "2Q_t_0236-0252_45"
    INDEX 01 00:53:22
  TRACK 46 AUDIO
    TITLE "2Q_t_0236-0252_46"
    INDEX 01 00:54:24
  TRACK 47 AUDIO
    TITLE "2Q_t_0236-0252_47"
    INDEX 01 00:54:69
  TRACK 48 AUDIO
    TITLE "2Q_t_0236-0252_48"
    INDEX 01 00:56:11
  TRACK 49 AUDIO
    TITLE "2Q_t_0236-0252_49"
    INDEX 01 00:56:60
  TRACK 50 AUDIO
    TITLE "2Q_t_0236-0252_50"
    INDEX 01 01:02:13
  TRACK 51 AUDIO
    TITLE "2Q_t_0236-0252_51"
    INDEX 01 01:02:56
  TRACK 52 AUDIO
    TITLE "2Q_t_0236-0252_52"
    INDEX 01 01:04:06
  TRACK 53 AUDIO
    TITLE "2Q_t_0236-0252_53"
    INDEX 01 01:04:53
  TRACK 54 AUDIO
    TITLE "2Q_t_0236-0252_54"
    INDEX 01 01:05:53
  TRACK 55 AUDIO
    TITLE "2Q_t_0236-0252_55"
    INDEX 01 01:06:21
  TRACK 56 AUDIO
    TITLE "2Q_t_0236-0252_56"
    INDEX 01 01:07:38
  TRACK 57 AUDIO
    TITLE "2Q_t_0236-0252_57"
    INDEX 01 01:08:08
  TRACK 58 AUDIO
    TITLE "2Q_t_0236-0252_58"
    INDEX 01 01:08:75
  TRACK 59 AUDIO
    TITLE "2Q_t_0236-0252_59"
    INDEX 01 01:09:45
  TRACK 60 AUDIO
    TITLE "2Q_t_0236-0252_60"
    INDEX 01 01:10:62
  TRACK 61 AUDIO
    TITLE "2Q_t_0236-0252_61"
    INDEX 01 01:11:38
  TRACK 62 AUDIO
    TITLE "2Q_t_0236-0252_62"
    INDEX 01 01:13:70
  TRACK 63 AUDIO
    TITLE "2Q_t_0236-0252_63"
    INDEX 01 01:14:38
  TRACK 64 AUDIO
    TITLE "2Q_t_0236-0252_64"
    INDEX 01 01:15:63
  TRACK 65 AUDIO
    TITLE "2Q_t_0236-0252_65"
    INDEX 01 01:16:37
  TRACK 66 AUDIO
    TITLE "2Q_t_0236-0252_66"
    INDEX 01 01:18:54
  TRACK 67 AUDIO
    TITLE "2Q_t_0236-0252_67"
    INDEX 01 01:19:22
  TRACK 68 AUDIO
    TITLE "2Q_t_0236-0252_68"
    INDEX 01 01:20:29
  TRACK 69 AUDIO
    TITLE "2Q_t_0236-0252_69"
    INDEX 01 01:21:01
  TRACK 70 AUDIO
    TITLE "2Q_t_0236-0252_70"
    INDEX 01 01:25:22
